#define align_left_width 11
#define align_left_height 11
static unsigned char align_left_bits[] = {
   0xff, 0x01, 0x00, 0x00, 0xff, 0x07, 0x00, 0x00, 0xff, 0x01, 0x00, 0x00,
   0xff, 0x07, 0x00, 0x00, 0xff, 0x01, 0x00, 0x00, 0xff, 0x07};
