#define align_both_width 11
#define align_both_height 11
static unsigned char align_both_bits[] = {
   0xff, 0x07, 0x00, 0x00, 0xff, 0x07, 0x00, 0x00, 0xff, 0x07, 0x00, 0x00,
   0xff, 0x07, 0x00, 0x00, 0xff, 0x07, 0x00, 0x00, 0xff, 0x07};
