#define align_right_width 11
#define align_right_height 11
static unsigned char align_right_bits[] = {
   0xfc, 0x07, 0x00, 0x00, 0xff, 0x07, 0x00, 0x00, 0xfc, 0x07, 0x00, 0x00,
   0xff, 0x07, 0x00, 0x00, 0xfc, 0x07, 0x00, 0x00, 0xff, 0x07};
