#define align_center_width 11
#define align_center_height 11
static unsigned char align_center_bits[] = {
   0xfc, 0x01, 0x00, 0x00, 0xfe, 0x03, 0x00, 0x00, 0xfc, 0x01, 0x00, 0x00,
   0xfe, 0x03, 0x00, 0x00, 0xfc, 0x01, 0x00, 0x00, 0xfe, 0x03};
