#define back_width 12
#define back_height 12
static unsigned char back_bits[] = {
   0x00, 0x00, 0x80, 0x00, 0xc0, 0x00, 0xe0, 0x00, 0xf0, 0x00, 0xf8, 0x00,
   0xf8, 0x00, 0xf0, 0x00, 0xe0, 0x00, 0xc0, 0x00, 0x80, 0x00, 0x00, 0x00};
