#define faster_width 12
#define faster_height 12
static unsigned char faster_bits[] = {
   0x00, 0x00, 0x20, 0x00, 0x70, 0x00, 0xd8, 0x00, 0x8c, 0x01, 0x26, 0x03,
   0x70, 0x00, 0xd8, 0x00, 0x8c, 0x01, 0x06, 0x03, 0x00, 0x00, 0x00, 0x00};
