#define forward_width 12
#define forward_height 12
static unsigned char forward_bits[] = {
   0x00, 0x00, 0x08, 0x00, 0x18, 0x00, 0x38, 0x00, 0x78, 0x00, 0xf8, 0x00,
   0xf8, 0x00, 0x78, 0x00, 0x38, 0x00, 0x18, 0x00, 0x08, 0x00, 0x00, 0x00};
