#define pause_width 12
#define pause_height 12
static unsigned char pause_bits[] = {
   0x00, 0x00, 0x00, 0x00, 0xde, 0x03, 0xde, 0x03, 0xde, 0x03, 0xde, 0x03,
   0xd6, 0x02, 0xde, 0x03, 0xde, 0x03, 0xde, 0x03, 0x00, 0x00, 0x00, 0x00};
