#define slower_width 12
#define slower_height 12
static unsigned char slower_bits[] = {
   0x00, 0x00, 0x00, 0x00, 0x06, 0x03, 0x8c, 0x01, 0xd8, 0x00, 0x70, 0x00,
   0x26, 0x03, 0x8c, 0x01, 0xd8, 0x00, 0x70, 0x00, 0x20, 0x00, 0x00, 0x00};
