#define back_width 16
#define back_height 16
static char back_bits[] = {
 0xaa,0xaa,0x55,0xd5,0x02,0xc0,0x01,0xc2,0x02,0xc3,0x81,0xc3,0xc2,0xc3,0xe1,
 0xc3,0xf2,0xc3,0xe1,0xc3,0xc2,0xc3,0x81,0xc3,0x02,0xc3,0x01,0xc0,0xfe,0xff,
 0xff,0xff};
