#define cyclical_width 12
#define cyclical_height 12
static unsigned char cyclical_bits[] = {
   0x00, 0x00, 0xfc, 0x03, 0xfe, 0x07, 0x06, 0x06, 0x06, 0x06, 0x26, 0x06,
   0x66, 0x06, 0xfe, 0x00, 0xfc, 0x00, 0x60, 0x00, 0x20, 0x00, 0x00, 0x00};
