#define cycle_width 16
#define cycle_height 16
static char cycle_bits[] = {
 0xaa,0xaa,0x55,0xd5,0x02,0xc0,0xf1,0xcf,0xfa,0xdf,0x19,0xd8,0x1a,0xd8,0x99,
 0xd8,0x9a,0xd9,0xf9,0xc3,0xf2,0xc3,0x81,0xc1,0x82,0xc0,0x01,0xc0,0xfe,0xff,
 0xff,0xff};
