#define faster_width 16
#define faster_height 16
static char faster_bits[] = {
 0xaa,0xaa,0x55,0xd5,0x02,0xc0,0x81,0xc0,0xc2,0xc1,0x61,0xc3,0x32,0xc6,0x99,
 0xcc,0xc2,0xc1,0x61,0xc3,0x32,0xc6,0x19,0xcc,0x02,0xc0,0x01,0xc0,0xfe,0xff,
 0xff,0xff};
