#define Micon_width 16
#define Micon_height 16
static unsigned char Micon_bits[] = {
  0xe0, 0x00, 0xf8, 0x1d, 0xf8, 0x3f, 0xf8, 0x7f, 0xf0, 0x3f, 0xf0, 0x7f,
  0xf8, 0xff, 0xff, 0xff, 0xfe, 0xff, 0xfc, 0xff, 0xfe, 0xff, 0xfc, 0x7f,
  0xf0, 0x3f, 0xf0, 0x3f, 0xf0, 0x3f, 0x70, 0x3e, };
