#define forward_width 16
#define forward_height 16
static char forward_bits[] = {
 0xaa,0xaa,0x55,0xd5,0x02,0xc0,0x21,0xc0,0x62,0xc0,0xe1,0xc0,0xe2,0xc1,0xe1,
 0xc3,0xe2,0xc3,0xe1,0xc1,0xe2,0xc0,0x61,0xc0,0x22,0xc0,0x01,0xc0,0xfe,0xff,
 0xff,0xff};
