#define go_back_width 17
#define go_back_height 11
static unsigned char go_back_bits[] = {
   0x00, 0x00, 0x00, 0x30, 0x00, 0x00, 0x38, 0x00, 0x00, 0x3c, 0x00, 0x00,
   0xfe, 0xff, 0x00, 0xff, 0xff, 0x00, 0xfe, 0xff, 0x00, 0xbc, 0xaa, 0x00,
   0x38, 0x00, 0x00, 0x30, 0x00, 0x00, 0x00, 0x00, 0x00};
