#define pause_width 16
#define pause_height 16
static char pause_bits[] = {
 0xaa,0xaa,0x55,0xd5,0x02,0xc0,0x01,0xc0,0x7a,0xcf,0x79,0xcf,0x7a,0xcf,0x79,
 0xcf,0x5a,0xcb,0x79,0xcf,0x7a,0xcf,0x79,0xcf,0x02,0xc0,0x01,0xc0,0xfe,0xff,
 0xff,0xff};
