#define slower_width 16
#define slower_height 16
static char slower_bits[] = {
 0xaa,0xaa,0x55,0xd5,0x02,0xc0,0x01,0xc0,0x1a,0xcc,0x31,0xc6,0x62,0xc3,0xc1,
 0xc1,0x9a,0xcc,0x31,0xc6,0x62,0xc3,0xc1,0xc1,0x82,0xc0,0x01,0xc0,0xfe,0xff,
 0xff,0xff};
