/* XPM */
static char * sylpheed_claws_gtk2_xpm[] = {
"32 32 555 2",
"  	c None",
". 	c #85A7B6",
"+ 	c #A1C2D1",
"@ 	c #C0DCE9",
"# 	c #CFE5EF",
"$ 	c #D2E7F0",
"% 	c #C8E3EE",
"& 	c #ACCCD9",
"* 	c #94B3C1",
"= 	c #6C8D9A",
"- 	c #7F9DB0",
"; 	c #B0C5D2",
"> 	c #CFDCE5",
", 	c #D7E0E7",
"' 	c #DDE5EA",
") 	c #DFE6EC",
"! 	c #E0E8ED",
"~ 	c #E2EAEF",
"{ 	c #DFE7EE",
"] 	c #D9E6EE",
"^ 	c #C4DAE4",
"/ 	c #A0C0CE",
"( 	c #4D6C84",
"_ 	c #96AFC3",
": 	c #C2CED9",
"< 	c #C3CFDA",
"[ 	c #C5D0DB",
"} 	c #C2CDD7",
"| 	c #B9C3CD",
"1 	c #B5BFC7",
"2 	c #BDC7D0",
"3 	c #C8D3DD",
"4 	c #C3CDD7",
"5 	c #CAD4DE",
"6 	c #CFDAE3",
"7 	c #B3CBD9",
"8 	c #7597A8",
"9 	c #2F4C68",
"0 	c #91A6BB",
"a 	c #ADBECE",
"b 	c #B1C1D0",
"c 	c #B3C3D1",
"d 	c #B5C4D3",
"e 	c #939FAA",
"f 	c #737B83",
"g 	c #767E86",
"h 	c #7A8086",
"i 	c #98A1AB",
"j 	c #7C848C",
"k 	c #A3AEB8",
"l 	c #BCC7D4",
"m 	c #BCC9D6",
"n 	c #A7BAC9",
"o 	c #66859A",
"p 	c #365371",
"q 	c #7F97B0",
"r 	c #9AADC2",
"s 	c #9BAEC3",
"t 	c #9EB0C4",
"u 	c #91A2B3",
"v 	c #58626C",
"w 	c #464D54",
"x 	c #3D4246",
"y 	c #10130C",
"z 	c #161816",
"A 	c #0E1010",
"B 	c #92A3AC",
"C 	c #BBD1DD",
"D 	c #B4C6D4",
"E 	c #B9CDDA",
"F 	c #B7D6E4",
"G 	c #759AAE",
"H 	c #617F9D",
"I 	c #869DB5",
"J 	c #889FB7",
"K 	c #889FB8",
"L 	c #89A0B8",
"M 	c #7B94AF",
"N 	c #5D758F",
"O 	c #181F27",
"P 	c #111315",
"Q 	c #2D3A16",
"R 	c #48620C",
"S 	c #293906",
"T 	c #0E1208",
"U 	c #57646A",
"V 	c #9DB4BD",
"W 	c #ADC3D3",
"X 	c #B5CEDD",
"Y 	c #BEDDEA",
"Z 	c #A5CBDC",
"` 	c #305273",
" .	c #6F8CA9",
"..	c #708DA9",
"+.	c #6785A3",
"@.	c #587791",
"#.	c #486A74",
"$.	c #3A5F60",
"%.	c #3C615A",
"&.	c #426459",
"*.	c #3C5443",
"=.	c #2F3B1E",
"-.	c #698921",
";.	c #6F941C",
">.	c #678B16",
",.	c #3D530B",
"'.	c #303C38",
").	c #69828D",
"!.	c #A5CFE0",
"~.	c #AFD6E6",
"{.	c #B5D9E8",
"].	c #B3D7E6",
"^.	c #80AEC1",
"/.	c #406385",
"(.	c #5D7F9E",
"_.	c #517597",
":.	c #2E506A",
"<.	c #506F4B",
"[.	c #70933C",
"}.	c #719235",
"|.	c #668031",
"1.	c #596D2E",
"2.	c #586E27",
"3.	c #658124",
"4.	c #6B8B26",
"5.	c #617F1D",
"6.	c #698A1F",
"7.	c #576F23",
"8.	c #4A5F42",
"9.	c #5A7C87",
"0.	c #8AC2D9",
"a.	c #90C6DE",
"b.	c #9FCEE1",
"c.	c #A8D2E3",
"d.	c #92BFD3",
"e.	c #183959",
"f.	c #385F85",
"g.	c #234F7B",
"h.	c #1A4063",
"i.	c #AB9E87",
"j.	c #5C5C3B",
"k.	c #59741C",
"l.	c #41561E",
"m.	c #374527",
"n.	c #677D36",
"o.	c #769333",
"p.	c #4B5D22",
"q.	c #4D641A",
"r.	c #799B2C",
"s.	c #6D8832",
"t.	c #708F2B",
"u.	c #6B8753",
"v.	c #83B8C8",
"w.	c #86C1DA",
"x.	c #81BFD8",
"y.	c #84C0D8",
"z.	c #8FC4D9",
"A.	c #6897AB",
"B.	c #11385F",
"C.	c #164573",
"D.	c #033667",
"E.	c #506470",
"F.	c #B6AB8F",
"G.	c #363931",
"H.	c #2F3B1D",
"I.	c #1C2D2A",
"J.	c #607938",
"K.	c #7C9A37",
"L.	c #5E7529",
"M.	c #485D20",
"N.	c #262D17",
"O.	c #445A18",
"P.	c #789537",
"Q.	c #52662A",
"R.	c #597024",
"S.	c #7D9A3B",
"T.	c #789D7B",
"U.	c #7EB5C8",
"V.	c #81BED8",
"W.	c #7CBBD6",
"X.	c #7BBAD3",
"Y.	c #6AA3BB",
"Z.	c #023260",
"`.	c #003467",
" +	c #2F495C",
".+	c #757364",
"++	c #0A2842",
"@+	c #2E4635",
"#+	c #5E782E",
"$+	c #688529",
"%+	c #4D6128",
"&+	c #243835",
"*+	c #1E313A",
"=+	c #405950",
"-+	c #4E6129",
";+	c #82A338",
">+	c #5F7949",
",+	c #3F534A",
"'+	c #485E1E",
")+	c #7A9932",
"!+	c #729357",
"~+	c #77B0C4",
"{+	c #7ABAD4",
"]+	c #74B7D2",
"^+	c #6CAECA",
"/+	c #0E4371",
"(+	c #023769",
"_+	c #003366",
":+	c #042D54",
"<+	c #485248",
"[+	c #4C613A",
"}+	c #6B8831",
"|+	c #668229",
"1+	c #475B22",
"2+	c #273C35",
"3+	c #193957",
"4+	c #284B6A",
"5+	c #547A74",
"6+	c #526827",
"7+	c #799A30",
"8+	c #70905F",
"9+	c #597D8A",
"0+	c #3E5042",
"a+	c #5E7924",
"b+	c #779632",
"c+	c #688D77",
"d+	c #74AFC5",
"e+	c #73B6D2",
"f+	c #6EB2CF",
"g+	c #215C86",
"h+	c #3479A3",
"i+	c #043A6C",
"j+	c #022B53",
"k+	c #52632D",
"l+	c #586C26",
"m+	c #4B5E22",
"n+	c #4B5D23",
"o+	c #1E363C",
"p+	c #1B4263",
"q+	c #3F7294",
"r+	c #64A4C1",
"s+	c #517057",
"t+	c #58731E",
"u+	c #799A2F",
"v+	c #6A8461",
"w+	c #74909B",
"x+	c #506C76",
"y+	c #4C5E24",
"z+	c #607D20",
"A+	c #769647",
"B+	c #6DA2A6",
"C+	c #70B5D1",
"D+	c #6AB0CD",
"E+	c #29658C",
"F+	c #57A8CD",
"G+	c #1F5D8C",
"H+	c #01305D",
"I+	c #8F8566",
"J+	c #756A49",
"K+	c #2C361B",
"L+	c #3C4820",
"M+	c #214456",
"N+	c #4C89A9",
"O+	c #6EB6D5",
"P+	c #679CAC",
"Q+	c #495B29",
"R+	c #5B7622",
"S+	c #708A35",
"T+	c #7E8A67",
"U+	c #AFB2B3",
"V+	c #65757B",
"W+	c #3E4D1C",
"X+	c #546C20",
"Y+	c #799B45",
"Z+	c #6B9F9F",
"`+	c #6DB3D0",
" @	c #65A9C5",
".@	c #397593",
"+@	c #5BADD0",
"@@	c #418AB2",
"#@	c #19537D",
"$@	c #B7AD8F",
"%@	c #D9C393",
"&@	c #1F2828",
"*@	c #2E3C3A",
"=@	c #5A7387",
"-@	c #94AAB7",
";@	c #BCC1C3",
">@	c #92958D",
",@	c #404929",
"'@	c #5A6130",
")@	c #5F6E39",
"!@	c #939886",
"~@	c #F9F9F7",
"{@	c #9EAEB4",
"]@	c #394C41",
"^@	c #5E6047",
"/@	c #767765",
"(@	c #6597A6",
"_@	c #69AFCD",
":@	c #5795AE",
"<@	c #32657D",
"[@	c #55A3C4",
"}@	c #549FC1",
"|@	c #437796",
"1@	c #928F7B",
"2@	c #D8C499",
"3@	c #646460",
"4@	c #7C7F82",
"5@	c #C4C5C6",
"6@	c #D6D6D6",
"7@	c #C7C7C5",
"8@	c #B7B8B8",
"9@	c #635945",
"0@	c #BEAD8D",
"a@	c #645D4A",
"b@	c #B9BAB6",
"c@	c #FDFDFB",
"d@	c #B2B8B9",
"e@	c #576F71",
"f@	c #BEB7A1",
"g@	c #A79F7F",
"h@	c #6596A6",
"i@	c #61A7C3",
"j@	c #497E94",
"k@	c #638E9F",
"l@	c #C4C9CB",
"m@	c #C3C3C4",
"n@	c #918F8B",
"o@	c #A69B85",
"p@	c #B5A27A",
"q@	c #A3967C",
"r@	c #A69B84",
"s@	c #B8B3AB",
"t@	c #A08F6D",
"u@	c #A39882",
"v@	c #C2AC7D",
"w@	c #AC9F84",
"x@	c #A09F9E",
"y@	c #ADA89C",
"z@	c #AB9F84",
"A@	c #ABA089",
"B@	c #AA9B78",
"C@	c #B7A985",
"D@	c #587170",
"E@	c #5591AB",
"F@	c #528EA9",
"G@	c #4F6E7B",
"H@	c #ECECEA",
"I@	c #D8D8D7",
"J@	c #979797",
"K@	c #9E9D9A",
"L@	c #C5BFB1",
"M@	c #D5CDBC",
"N@	c #DCD8CE",
"O@	c #EFEEED",
"P@	c #A3926F",
"Q@	c #B09969",
"R@	c #9B8F74",
"S@	c #918E88",
"T@	c #D0CFCE",
"U@	c #E5E3E0",
"V@	c #C5BCAB",
"W@	c #BDB19A",
"X@	c #888472",
"Y@	c #6A726B",
"Z@	c #5E7883",
"`@	c #7295A4",
" #	c #728E98",
".#	c #7C8283",
"+#	c #D8DBDC",
"@#	c #FEFEFC",
"##	c #DFDFDE",
"$#	c #A4A4A4",
"%#	c #9F9F9F",
"&#	c #B9B9B9",
"*#	c #CBCBCB",
"=#	c #E1E1E1",
"-#	c #C5C5C5",
";#	c #B0B0B0",
">#	c #969695",
",#	c #C0BFBD",
"'#	c #EAE8E6",
")#	c #CDCCCA",
"!#	c #BDBBB9",
"~#	c #B9B6B5",
"{#	c #918F8E",
"]#	c #B6B6B4",
"^#	c #E8E8E6",
"/#	c #E8ABA0",
"(#	c #E49C90",
"_#	c #C5C3C0",
":#	c #B9BCBC",
"<#	c #FCFCFA",
"[#	c #F0F0EE",
"}#	c #CDCDCC",
"|#	c #BABAB9",
"1#	c #BEBEBE",
"2#	c #D8D8D8",
"3#	c #B1B1B1",
"4#	c #929191",
"5#	c #BDBCBA",
"6#	c #DDDCDA",
"7#	c #E8E5E4",
"8#	c #DFDCDA",
"9#	c #C3C1BF",
"0#	c #B8B5B3",
"a#	c #A6A4A3",
"b#	c #D6D6D4",
"c#	c #D59B94",
"d#	c #D9847A",
"e#	c #C1BFB9",
"f#	c #9A9A99",
"g#	c #F3F3F1",
"h#	c #E8E8E7",
"i#	c #D4D3D2",
"j#	c #C4C3C1",
"k#	c #DBD9D8",
"l#	c #E0DEDC",
"m#	c #DCDAD8",
"n#	c #D7D4D2",
"o#	c #D6D2D0",
"p#	c #D2CECC",
"q#	c #CFCAC9",
"r#	c #BCB7B6",
"s#	c #D6D5D3",
"t#	c #FAFAF8",
"u#	c #D48F85",
"v#	c #DF8F84",
"w#	c #BDBBB7",
"x#	c #EAEAE8",
"y#	c #F6F6F4",
"z#	c #EDEDEB",
"A#	c #E8E6E4",
"B#	c #E1DFDD",
"C#	c #DFDCDB",
"D#	c #DAD7D5",
"E#	c #CFCBCA",
"F#	c #CBC7C5",
"G#	c #C7C1C0",
"H#	c #C4BFBD",
"I#	c #B6B1AF",
"J#	c #C6C4C3",
"K#	c #FBFBF9",
"L#	c #EFE5E1",
"M#	c #F0E6E2",
"N#	c #BAB9B7",
"O#	c #D2D2D1",
"P#	c #F3F2F0",
"Q#	c #EBEAE8",
"R#	c #E4E3E1",
"S#	c #DAD7D6",
"T#	c #D7D3D1",
"U#	c #D0CCCA",
"V#	c #CCC7C6",
"W#	c #BFBAB8",
"X#	c #B6B1B0",
"Y#	c #A8A4A2",
"Z#	c #A29E9C",
"`#	c #9D9A99",
" $	c #C2C0BF",
".$	c #F1EFEE",
"+$	c #EDECEA",
"@$	c #EBE9E7",
"#$	c #B0AEAE",
"$$	c #BABABA",
"%$	c #FBFAF8",
"&$	c #F6F5F3",
"*$	c #E8E7E5",
"=$	c #E3E1E0",
"-$	c #DDDBD9",
";$	c #D9D7D5",
">$	c #D3D0CE",
",$	c #CFCBC9",
"'$	c #B4B0AE",
")$	c #A4A09F",
"!$	c #A4A2A0",
"~$	c #A2A19F",
"{$	c #A3A2A1",
"]$	c #B4B3B1",
"^$	c #CFCECC",
"/$	c #E5E3E1",
"($	c #ECEAE8",
"_$	c #EAE7E5",
":$	c #E6E3E1",
"<$	c #E3E0DE",
"[$	c #A9A7A5",
"}$	c #7C7C7C",
"|$	c #E7E5E4",
"1$	c #D7D5D4",
"2$	c #CCCAC8",
"3$	c #B8B6B4",
"4$	c #B4B2B0",
"5$	c #B1AFAE",
"6$	c #BDBDBB",
"7$	c #C2C1BF",
"8$	c #D4D2D1",
"9$	c #E2E0DF",
"0$	c #DEDCDA",
"a$	c #D8D6D5",
"b$	c #E3E1DF",
"c$	c #E5E1E0",
"d$	c #E0DDDC",
"e$	c #DEDAD9",
"f$	c #D8D4D2",
"g$	c #9F9C9A",
"h$	c #CDCBCA",
"i$	c #B1B0AE",
"j$	c #8C8B8B",
"k$	c #706E6E",
"l$	c #828180",
"m$	c #CACAC8",
"n$	c #E4E3E2",
"o$	c #EEECEB",
"p$	c #EEECEA",
"q$	c #E9E6E5",
"r$	c #E5E2E1",
"s$	c #E3DFDE",
"t$	c #DDD9D7",
"u$	c #D9D5D3",
"v$	c #D3CECC",
"w$	c #D0CBCA",
"x$	c #989492",
"y$	c #91918F",
"z$	c #E2E1DF",
"A$	c #ECEAE9",
"B$	c #E6E4E2",
"C$	c #E4E1DF",
"D$	c #E0DDDB",
"E$	c #DEDAD8",
"F$	c #DAD6D4",
"G$	c #D8D3D1",
"H$	c #D4CFCE",
"I$	c #D1CCCB",
"J$	c #CEC8C7",
"K$	c #CBC5C4",
"L$	c #C7C2C0",
"M$	c #C5BFBD",
"N$	c #8E8988",
"O$	c #A6A5A4",
"P$	c #ACAAA9",
"Q$	c #A9A7A6",
"R$	c #A5A3A2",
"S$	c #A2A09F",
"T$	c #9F9C9B",
"U$	c #9B9998",
"V$	c #989594",
"W$	c #959291",
"X$	c #928E8D",
"Y$	c #8F8B8A",
"Z$	c #8B8786",
"`$	c #888383",
" %	c #84807F",
".%	c #817D7C",
"+%	c #5D5958",
"                                                                ",
"                                                                ",
"                        . + @ # $ % & * =                       ",
"                    - ; > , ' ) ! ~ { ] ^ /                     ",
"                ( _ : < < [ } | 1 2 3 4 5 6 7 8                 ",
"              9 0 a b b c d e f g h i j k l m n o               ",
"            p q r r r s t u v w x y z A B C D E F G             ",
"            H I J K L L M N O P Q R S T U V W X Y Z             ",
"          `  ...+.@.#.$.%.&.*.=.-.;.>.,.'.).!.~.{.].^.          ",
"          /.(._.:.<.[.}.|.1.2.3.4.5.6.7.8.9.0.a.b.c.d.          ",
"        e.f.g.h.i.j.k.l.m.n.o.3.p.q.r.s.t.u.v.w.x.y.z.A.        ",
"        B.C.D.E.F.G.H.I.J.K.L.M.N.O.P.Q.R.S.T.U.V.W.X.Y.        ",
"        Z.`.`. +.+++@+#+$+%+&+*+=+-+;+>+,+'+)+!+~+{+]+^+        ",
"        /+(+_+:+<+[+}+|+1+2+3+4+5+6+7+8+9+0+a+b+c+d+e+f+        ",
"        g+h+i+j+k+l+m+n+o+p+q+r+s+t+u+v+w+x+y+z+A+B+C+D+        ",
"        E+F+G+H+I+J+K+L+M+N+O+P+Q+R+S+T+U+V+W+X+Y+Z+`+ @        ",
"        .@+@@@#@$@%@&@*@=@-@;@>@,@'@)@!@~@{@]@^@/@(@_@:@        ",
"        <@[@}@|@1@2@3@4@5@6@7@8@9@0@a@b@c@d@e@f@g@h@i@j@        ",
"          k@l@m@n@o@p@q@r@s@t@u@v@w@x@y@z@A@B@C@D@E@F@          ",
"          G@H@I@J@K@L@M@N@O@P@Q@R@S@T@U@V@W@X@Y@Z@`@ #.#        ",
"            +#@###$#%#&#*#=#-#;#>#,#'#)#!#~#{#]#^#c@/#(#_#      ",
"            :#<#c@[#}#|#1#2#3#4#5#6#7#8#9#0#a#b#<#c@c#d#e#      ",
"            f#g#@#@#@#<#h#i#j#k#l#m#n#o#p#q#r#s#@#t#u#v#w#      ",
"              x#@#@#c@y#z#A#B#C#D#o#E#F#G#H#I#J#<#K#L#M#N#      ",
"              O#@#<#P#Q#R#l#S#T#U#V#W#X#Y#Z#`# $P#.$+$@$#$      ",
"              $$%$&$*$=$-$;$>$,$'$)$!$~${$]$^$/$($_$:$<$[$      ",
"              }$.$|$1$2$3$~#4$5$6$7$8$9$0$a$b$c$d$e$D#f$g$      ",
"                h$i$j$k$l$m$n$Q#o$p$@$q$r$s$8#t$u$o#v$w$x$      ",
"                        y$z$A$'#B$C$D$E$F$G$H$I$J$K$L$M$N$      ",
"                          O$P$Q$R$S$T$U$V$W$X$Y$Z$`$ %.%+%      ",
"                                                                ",
"                                                                "};
