/* XPM */
static char *sense_emu_gui[] = {
/* columns rows colors chars-per-pixel */
"32 32 133 2 ",
"   c #030001",
".  c #0C0004",
"X  c #130006",
"o  c #190007",
"O  c #1B0208",
"+  c #141D0B",
"@  c #25010B",
"#  c #2D010E",
"$  c #31010F",
"%  c #340110",
"&  c #3F0113",
"*  c #3D0918",
"=  c #1C280F",
"-  c #1F2A10",
";  c #1D351D",
":  c #293515",
">  c #3F1620",
",  c #1C2823",
"<  c #2C2526",
"1  c #420214",
"2  c #4A0217",
"3  c #54021A",
"4  c #5C021C",
"5  c #63021E",
"6  c #6B0321",
"7  c #730323",
"8  c #7C0326",
"9  c #32421A",
"0  c #384E1E",
"q  c #1C472F",
"w  c #194A2E",
"e  c #1D4335",
"r  c #1F4D34",
"t  c #1D543C",
"y  c #2E512B",
"u  c #3F5C28",
"i  c #205137",
"p  c #295332",
"a  c #296B36",
"s  c #26673D",
"d  c #25683D",
"f  c #2E6E3C",
"g  c #366E3C",
"h  c #435924",
"j  c #42612A",
"k  c #54742E",
"l  c #5A752F",
"z  c #5D7330",
"x  c #5A7C31",
"c  c #1E5340",
"v  c #1E5C44",
"b  c #1F674E",
"n  c #1F6D48",
"m  c #20694F",
"M  c #247040",
"N  c #297142",
"B  c #257649",
"V  c #26794E",
"C  c #367244",
"Z  c #3B7345",
"A  c #32774C",
"S  c #39764A",
"D  c #31784E",
"F  c #216B50",
"G  c #267A50",
"H  c #237659",
"J  c #2D775D",
"K  c #267C5E",
"L  c #2F785E",
"P  c #30795F",
"I  c #465C53",
"U  c #4B5B54",
"Y  c #535D59",
"T  c #585D5B",
"R  c #4D7655",
"E  c #527555",
"W  c #5E7951",
"Q  c #567E5A",
"!  c #637B55",
"~  c #6C7A54",
"^  c #800327",
"/  c #830328",
"(  c #8A032A",
")  c #94042E",
"_  c #9A042F",
"`  c #9D0430",
"'  c #A40432",
"]  c #AB0434",
"[  c #B20437",
"{  c #B50538",
"}  c #BD053A",
"|  c #C4053C",
" . c #CB053E",
".. c #5F8233",
"X. c #628634",
"o. c #648A36",
"O. c #668D38",
"+. c #698F38",
"@. c #6D963A",
"#. c #6F983B",
"$. c #729C3D",
"%. c #28805C",
"&. c #278161",
"*. c #298564",
"=. c #2F8969",
"-. c #328462",
";. c #338B6B",
":. c #44805D",
">. c #7EAD44",
",. c #85B747",
"<. c #87B948",
"1. c #8ABD4A",
"2. c #8EC24C",
"3. c #90C54D",
"4. c #84B9A6",
"5. c #87BBA8",
"6. c #8DBEAC",
"7. c #95C3B2",
"8. c #9CC6B7",
"9. c #9DC7B8",
"0. c #A2CBBC",
"q. c #AACFC1",
"w. c #ADD1C4",
"e. c #B1D3C7",
"r. c #B5D5C9",
"t. c #B8D7CC",
"y. c #BBD8CE",
"u. c #BEDAD0",
"i. c #C3DDD4",
"p. c #C8E0D7",
"a. c #CCE2DA",
"s. c #D0E4DD",
"d. c None",
/* pixels */
"d.d.d.d.d.d.d.d.d.d.d.d.d.d.d.d.d.d.d.d.d.d.d.d.d.d.d.d.d.d.d.d.",
"d.f N d s s s s d d d s s s d d d d s s d d d d N f d.d.d.d.d.d.",
"C ! R I U Y Y U U Y Y Y Y U Y U Y U Y Y U Y Y I E W g d.d.d.d.d.",
"S ! E U T T T T T T T T T T T T T T T T T T T U E ! C d.d.d.d.d.",
"G -.*.L P L L L L L L L L L L J J J J J J J J K %.-.B d.d.d.d.d.",
"V *.*.5.e.w.0.q.0.0.w.0.0.w.0.7.=.*.*.*.*.*.*.*.*.*.B d.d.d.d.d.",
"V *.*.7.u.t.e.t.t.w.t.r.e.u.e.0.=.*.*.*.*.*.*.*.*.*.B d.d.d.d.d.",
"V *.*.7.a.a.i.a.p.i.a.p.i.s.p.e.=.*.*.*.*.*.*.*.*.*.B d.d.d.d.d.",
"M V %.5.e.r.q.r.e.q.r.e.w.t.q.9.;.*.*.*.*.*.*.*.*.*.B d.d.d.d.d.",
"d.d.B 6.u.i.t.i.i.r.i.u.u.i.u.0.=.*.*.*.*.*.*.*.*.*.B d.d.d.d.d.",
"d.d.B 6.i.i.t.i.i.u.i.u.u.p.u.q.;.*.*.*.*.*.*.*.*.*.B d.d.d.d.d.",
"d.d.B 5.e.r.q.e.e.0.e.w.q.r.q.9.=.&.F t i t v K *.H q + + d.d.d.",
"d.d.V 7.p.a.i.a.p.i.a.p.i.s.i.e.=.v u X.#.@.k p b y x #.$.X.0 d.",
"d.d.B 5.r.t.e.t.r.w.t.e.e.u.w.0.=.t X.3.>.>.3.O.; $.2.>.,.1.k d.",
"d.d.G 5.r.t.e.t.t.w.t.r.e.u.e.0.=.m j 2.<.#.+.X.- @.O.$.1.,.0 d.",
"B %.*.7.a.a.i.a.a.i.a.p.i.s.i.e.;.&.r ..2.3.o.+   = $.2.1.k d.d.",
"V *.*.5.e.e.q.e.e.q.e.e.w.e.q.8.=.*.K w h z : o % O 9 l 0 d.d.d.",
"V *.*.6.t.u.t.i.y.r.u.y.t.i.t.q.=.*.H < 8 6 & ] | ] 2 8 5 o d.d.",
"V *.*.;.;.;.;.;.;.;.;.;.;.;.;.;.*.*.e ( ' @ $ _ ] ' & 2 [ 6 d.d.",
"A Q :.*.*.*.*.*.*.*.*.*.*.*.*.%.*.&., 5 % 6 / 2 O 4 ) 8 3 4 . d.",
"Z ~ :.-.*.*.*.*.*.*.*.*.*.*.*.*.*.c * o 8  . .' @ '  . ./ # 1 d.",
"a Z D G G G G G G G G G G G G %.n > ] 2 [  . .] # ]  . .{ 6 ] # ",
"d.d.d.d.d.d.d.d.d.d.d.d.d.d.d.d.d.4 { % `  .| 6 . 4 }  .) 2 } 1 ",
"d.d.d.d.d.d.d.d.d.d.d.d.d.d.d.d.d.& ^ . # 6 4 6 ( 6 3 4 @ @ ^ @ ",
"d.d.d.d.d.d.d.d.d.d.d.d.d.d.d.d.d.d.# 8 &   3 |  . .6 . 6 _ % d.",
"d.d.d.d.d.d.d.d.d.d.d.d.d.d.d.d.d.d.1 | } 2 7  .|  .8 6 | | 1 d.",
"d.d.d.d.d.d.d.d.d.d.d.d.d.d.d.d.d.d.@ '  ._ & ' } ' 2 ]  .' # d.",
"d.d.d.d.d.d.d.d.d.d.d.d.d.d.d.d.d.d.d.& ) 8 . @ 3 % O ) ) 2 d.d.",
"d.d.d.d.d.d.d.d.d.d.d.d.d.d.d.d.d.d.d.d.X . 2 ] { [ 2 . o d.d.d.",
"d.d.d.d.d.d.d.d.d.d.d.d.d.d.d.d.d.d.d.d.d.d.# 8 ` 8 # d.d.d.d.d.",
"d.d.d.d.d.d.d.d.d.d.d.d.d.d.d.d.d.d.d.d.d.d.d.d.d.d.d.d.d.d.d.d.",
"d.d.d.d.d.d.d.d.d.d.d.d.d.d.d.d.d.d.d.d.d.d.d.d.d.d.d.d.d.d.d.d."
};
